<svg xmlns="http://www.w3.org/2000/svg" viewBox="0 0 512 512" role="img" aria-label="TOTP Generator">
  <defs>
    <linearGradient id="bg" x1="96" y1="72" x2="416" y2="448" gradientUnits="userSpaceOnUse">
      <stop stop-color="#8B7CFF"/>
      <stop offset="0.52" stop-color="#6355FF"/>
      <stop offset="1" stop-color="#2EE6C5"/>
    </linearGradient>
    <linearGradient id="sheen" x1="256" y1="64" x2="256" y2="300" gradientUnits="userSpaceOnUse">
      <stop stop-color="#FFFFFF" stop-opacity="0.34"/>
      <stop offset="1" stop-color="#FFFFFF" stop-opacity="0"/>
    </linearGradient>
    <filter id="soft" x="-20%" y="-20%" width="140%" height="140%">
      <feDropShadow dx="0" dy="18" stdDeviation="24" flood-color="#6355FF" flood-opacity="0.42"/>
    </filter>
  </defs>

  <rect width="512" height="512" rx="118" fill="#070B14"/>
  <rect x="42" y="42" width="428" height="428" rx="102" fill="url(#bg)" filter="url(#soft)"/>
  <rect x="42" y="42" width="428" height="428" rx="102" fill="url(#sheen)"/>

  <circle cx="256" cy="256" r="122" fill="none" stroke="#FFFFFF" stroke-opacity="0.18" stroke-width="20"/>
  <path d="M256 134 A122 122 0 1 1 156 346" fill="none" stroke="#FFFFFF" stroke-width="20" stroke-linecap="round"/>

  <rect x="186" y="246" width="140" height="108" rx="24" fill="#FFFFFF"/>
  <path d="M214 246 V214 a42 42 0 0 1 84 0 v32" fill="none" stroke="#FFFFFF" stroke-width="24" stroke-linecap="round"/>
  <circle cx="256" cy="290" r="13" fill="#6355FF"/>
  <rect x="249" y="296" width="14" height="30" rx="5" fill="#6355FF"/>
</svg>
